<svg width="24" height="14" viewBox="0 0 24 14" fill="none" xmlns="http://www.w3.org/2000/svg">
<path fill-rule="evenodd" clip-rule="evenodd" d="M0.333008 1.16667C0.333008 0.522334 0.855342 0 1.49967 0H22.4997C23.144 0 23.6663 0.522334 23.6663 1.16667C23.6663 1.811 23.144 2.33333 22.4997 2.33333H1.49967C0.855342 2.33333 0.333008 1.811 0.333008 1.16667ZM0.333008 7C0.333008 6.35567 0.855342 5.83333 1.49967 5.83333H22.4997C23.144 5.83333 23.6663 6.35567 23.6663 7C23.6663 7.64433 23.144 8.16667 22.4997 8.16667H1.49967C0.855342 8.16667 0.333008 7.64433 0.333008 7ZM0.333008 12.8333C0.333008 12.189 0.855342 11.6667 1.49967 11.6667H22.4997C23.144 11.6667 23.6663 12.189 23.6663 12.8333C23.6663 13.4777 23.144 14 22.4997 14H1.49967C0.855342 14 0.333008 13.4777 0.333008 12.8333Z" fill="#22242A"/>
</svg>
