<svg width="138" height="22" viewBox="0 0 138 22" fill="none" xmlns="http://www.w3.org/2000/svg">
<path fill-rule="evenodd" clip-rule="evenodd" d="M22.9971 0.231445H23.9918C24.386 0.264125 24.7741 0.329484 25.1652 0.394844C24.155 1.91891 23.148 3.44297 22.1286 4.96109C22.7784 3.80542 23.4683 2.67351 24.1273 1.52378C22.6675 1.39009 21.143 1.69609 19.9296 2.51308C19.2767 2.94683 18.8363 3.60043 18.3989 4.22431C17.1793 6.03655 16.1107 7.93791 14.9219 9.76798C14.0718 11.0811 13.191 12.3853 12.1069 13.5321C11.568 14.0758 10.9797 14.6254 10.2313 14.8809C9.57535 15.0651 8.88856 15.0621 8.21409 15.1364C8.867 15.0175 9.56919 15.0472 10.1698 14.7383C11.0968 14.2302 11.762 13.3925 12.3903 12.5814C14.6293 9.53922 16.1384 6.0722 18.1402 2.89038C15.775 1.31582 12.7321 0.730554 9.92953 1.35741C7.60429 1.85652 5.50388 3.17856 4.0225 4.97C3.27103 4.88088 2.50725 4.97891 1.80814 5.24926C2.75979 3.88266 4.01326 2.70916 5.49156 1.87731C7.49958 0.730553 9.89257 0.231445 12.2178 0.457232C14.3921 0.653311 16.4895 1.50595 18.1803 2.83691C19.1535 1.20292 21.1184 0.385931 22.9971 0.231445Z" fill="#005A9C"/>
<path fill-rule="evenodd" clip-rule="evenodd" d="M0.834053 6.94784C0.00867123 8.87297 -0.219233 11.0358 0.218097 13.0797C0.636947 15.1683 1.73951 17.1142 3.29172 18.6204C6.18056 21.5557 10.9327 22.545 14.844 21.1338C16.7411 20.4446 18.5059 19.3305 19.7562 17.7767C17.8283 18.6175 15.6478 18.8581 13.5597 18.5462C9.78698 17.9847 6.1898 15.8189 4.34193 12.5509C3.58122 11.1665 2.98066 9.52062 3.50115 7.96091C3.78449 7.20928 4.16638 6.33287 5.0318 6.06549C4.27417 5.79217 3.45803 5.59906 2.64497 5.72086C1.89042 5.82484 1.16359 6.27048 0.834053 6.94784Z" fill="#005A9C"/>
<path fill-rule="evenodd" clip-rule="evenodd" d="M21.9507 7.45367C21.3286 7.52497 20.6849 7.67055 20.1829 8.04785C19.3206 8.67173 18.6184 9.46793 17.9347 10.2641C16.8075 11.6248 15.6187 12.935 14.4361 14.2511C13.8725 14.8601 13.2411 15.4661 12.4188 15.7335C11.3501 16.0752 10.1952 16.0573 9.0988 15.8494C9.81023 16.292 10.5217 16.7436 11.2947 17.0853C12.6806 17.2546 14.0788 16.8387 15.2368 16.1168C17.0169 15.0532 18.3197 13.4014 20.1306 12.3794C20.7219 12.008 21.3687 11.6961 22.077 11.607C23.1549 10.3028 24.1774 8.95991 25.1938 7.6141C24.1251 7.44476 23.0317 7.34078 21.9507 7.45367Z" fill="#005A9C"/>
<path fill-rule="evenodd" clip-rule="evenodd" d="M22.0935 11.6103C23.1437 11.4558 24.2216 11.6727 25.1825 12.0886C23.9845 13.6275 22.7772 15.1694 21.3882 16.5568C20.2364 17.7303 18.5024 18.1463 16.8794 18.2057C14.9699 18.2502 13.0358 17.8819 11.3081 17.0886C12.694 17.258 14.0922 16.842 15.2502 16.1201C17.0303 15.0565 18.3331 13.4047 20.144 12.3827C20.7384 12.0114 21.3851 11.6965 22.0935 11.6103Z" fill="#FD4236"/>
<path d="M29.7871 0.231445V19.9395" stroke="#005A9C" stroke-width="0.609526"/>
<path fill-rule="evenodd" clip-rule="evenodd" d="M36.0822 0.234866C38.8017 0.231445 41.523 0.233156 44.2426 0.233156C44.1324 1.05419 44.0222 1.87693 43.912 2.69967C42.9911 2.69967 42.0684 2.69967 41.1476 2.69967C40.8245 4.97974 40.5014 7.25981 40.1782 9.53989C39.0594 9.53989 37.9388 9.53989 36.8181 9.53989C37.1412 7.25981 37.4643 4.97974 37.7875 2.69967C36.6518 2.69796 35.5162 2.70138 34.3806 2.69796C34.941 1.87522 35.5181 1.05932 36.0822 0.234866ZM45.2605 0.241708C44.9729 2.65691 44.6871 5.07382 44.4013 7.48902C44.3266 8.17492 44.2033 8.8574 44.1043 9.53989C45.2381 9.53989 46.37 9.53989 47.5037 9.53989C47.5896 8.95661 47.6718 8.37163 47.7577 7.78835C48.8485 7.78664 49.9393 7.79177 51.0301 7.78493C52.0182 7.77125 53.0044 7.09048 53.1314 6.16682C53.3275 4.7112 53.5255 3.25558 53.7179 1.79825C53.8056 1.23208 53.4433 0.648803 52.8736 0.417888C52.5598 0.274207 52.2031 0.239998 51.8538 0.24684C49.6573 0.245129 47.4589 0.243419 45.2605 0.241708ZM48.475 2.70138C49.0652 2.70138 49.6554 2.70138 50.2456 2.70138C50.1261 3.47794 50.0103 4.2545 49.8908 5.02935C49.8833 5.18158 49.7507 5.32526 49.577 5.31842C49.0801 5.32868 48.5852 5.31842 48.0883 5.32013C48.2191 4.44778 48.3405 3.57373 48.475 2.70138ZM56.245 0.741169C56.3589 0.412756 56.7362 0.221182 57.1023 0.233156C58.7161 0.234866 60.3317 0.231445 61.9455 0.234866C62.2555 0.217761 62.5899 0.407625 62.5955 0.715512C62.9541 3.65754 63.309 6.59957 63.6657 9.53989C62.517 9.53989 61.3683 9.53989 60.2196 9.53989C60.158 9.00108 60.0982 8.46228 60.0366 7.92177C58.9458 7.93032 57.8532 7.94572 56.7605 7.95598C56.5625 8.47768 56.3832 9.00793 56.1759 9.52791C55.7967 9.49199 55.4138 9.52107 55.0347 9.51252C54.2726 9.51936 53.5124 9.49883 52.7522 9.52278C53.9028 6.59102 55.0832 3.6678 56.245 0.741169ZM58.774 3.03321C58.4247 3.88674 58.0754 4.74199 57.728 5.59552C58.4042 5.59552 59.0803 5.59552 59.7564 5.59552C59.6556 4.74199 59.5491 3.88845 59.4464 3.03321C59.2222 3.03321 58.9981 3.03321 58.774 3.03321ZM65.8454 0.233156C66.9773 0.233156 68.1073 0.233156 69.2392 0.233156C69.0711 1.3997 68.9067 2.56796 68.7405 3.73451C69.3793 3.73622 70.0181 3.73451 70.6569 3.73622C70.8268 2.56796 70.9893 1.3997 71.1574 0.231445C72.3509 0.233156 73.5463 0.229735 74.7399 0.233156C74.3047 3.33426 73.8751 6.43707 73.4399 9.53818C72.2464 9.53818 71.0547 9.53818 69.8612 9.53818C70.0162 8.43492 70.175 7.33165 70.33 6.22839C69.6912 6.22839 69.0506 6.22839 68.4118 6.22839C68.2549 7.33165 68.098 8.43492 67.943 9.53818C66.8129 9.53818 65.6811 9.53818 64.5492 9.53818C64.9806 6.43878 65.414 3.33597 65.8454 0.233156ZM85.5002 0.233156C86.6302 0.234866 87.7602 0.233156 88.8902 0.233156C88.7259 1.40141 88.5578 2.56796 88.3934 3.73622C89.0322 3.73622 89.6728 3.73622 90.3116 3.73622C90.4797 2.56796 90.6422 1.3997 90.8122 0.231445C92.0057 0.233156 93.1992 0.231445 94.3928 0.233156C93.9594 3.33597 93.528 6.43707 93.0946 9.53989C91.9011 9.53989 90.7076 9.53989 89.5141 9.53989C89.6728 8.43663 89.8279 7.33337 89.9848 6.23182C89.3441 6.23182 88.7053 6.23182 88.0647 6.23182C87.9078 7.33508 87.7509 8.43834 87.594 9.5416C86.464 9.5416 85.3321 9.5416 84.2002 9.5416C84.6354 6.43878 85.0669 3.33426 85.5002 0.233156ZM119.348 0.233156C122.703 0.233156 126.056 0.231445 129.41 0.233156C128.865 1.0559 128.319 1.87864 127.776 2.69967C126.967 2.69967 126.158 2.69967 125.351 2.69967C125.025 4.97974 124.703 7.25981 124.38 9.53989C123.259 9.5416 122.139 9.53989 121.02 9.53989C121.341 7.25981 121.666 4.97974 121.987 2.69967C120.996 2.69967 120.008 2.69967 119.016 2.69967C119.126 1.87864 119.236 1.0559 119.348 0.233156ZM129.948 0.233156C129.513 3.32913 129.076 6.42339 128.657 9.52107C129.167 9.49883 129.679 9.51936 130.191 9.51252C131.939 9.52278 133.689 9.4937 135.439 9.52791C136.153 9.4766 136.848 9.10713 137.197 8.52728C137.417 8.17834 137.425 7.76441 137.486 7.37442C137.66 6.16682 137.815 4.9558 138 3.74991V3.46254C137.95 2.98019 137.608 2.54231 137.13 2.33876C136.672 2.12324 136.143 2.166 135.649 2.16429C134.786 2.16429 133.925 2.16429 133.062 2.16429C133.157 1.52115 133.254 0.878007 133.349 0.234866C132.216 0.233156 131.082 0.233156 129.948 0.233156ZM132.372 7.08192C132.492 6.26602 132.612 5.45012 132.731 4.63422C133.318 4.63422 133.904 4.63422 134.491 4.63422C134.375 5.35263 134.293 6.07616 134.141 6.78772C134.106 6.89719 134.083 7.09219 133.915 7.07679C133.402 7.08877 132.888 7.0785 132.372 7.08192ZM75.5131 2.296C75.2684 3.96543 75.0424 5.63657 74.8015 7.30771C74.7249 7.73362 74.7585 8.18689 74.9939 8.56833C75.3469 9.17726 76.0865 9.52962 76.8224 9.57752H80.9409C82.0728 9.45094 83.1599 8.71714 83.4251 7.67204C83.5372 7.11955 83.5764 6.55852 83.6604 6.00261C82.5323 6.00261 81.406 6.00261 80.2797 6.00261C80.2293 6.30537 80.1789 6.60812 80.1322 6.91088C79.4896 6.9143 78.849 6.90917 78.2083 6.9143C78.4082 5.51512 78.6379 4.11937 78.8359 2.7202C79.4878 2.72704 80.1396 2.72875 80.7915 2.73388C80.7429 3.03663 80.6962 3.3411 80.6477 3.64557C81.7721 3.64557 82.8946 3.64557 84.0209 3.64557C84.09 3.07256 84.1834 2.49954 84.245 1.92482C84.288 1.50746 84.1255 1.06616 83.7744 0.790773C83.2645 0.387099 82.5622 0.270786 81.9066 0.272497C80.6645 0.277628 79.4205 0.265655 78.1785 0.277628C76.9401 0.313548 75.7111 1.14484 75.5131 2.296ZM95.5284 0.272497C95.0969 3.3736 94.6636 6.4747 94.2321 9.57581H102.529C102.639 8.76333 102.749 7.94914 102.858 7.13666C101.221 7.13495 99.5852 7.13666 97.949 7.13666C98.0069 6.75009 98.0667 6.36523 98.1265 5.97866C99.7589 5.97524 101.39 5.96327 103.02 5.96327C103.119 5.26026 103.218 4.55896 103.317 3.85596C101.685 3.85767 100.05 3.87135 98.4179 3.87135C98.4758 3.48478 98.5355 3.09992 98.5953 2.71335C100.23 2.71335 101.862 2.71335 103.496 2.71335C103.607 1.89916 103.717 1.08669 103.825 0.272497C101.061 0.272497 98.2946 0.272497 95.5284 0.272497ZM104.796 1.31418C105.17 0.660776 105.977 0.263944 106.774 0.277628C109.815 0.279339 112.854 0.275918 115.893 0.279339C116.44 0.286181 117.032 0.231445 117.525 0.49657C118.056 0.749721 118.362 1.31589 118.276 1.85469C118.086 3.29321 117.891 4.73001 117.699 6.16682C117.591 7.09732 116.608 7.79691 115.616 7.81743C114.516 7.82427 113.416 7.81743 112.318 7.81914C112.234 8.40413 112.146 8.98911 112.064 9.5741H108.659C108.76 8.98911 108.84 8.40071 108.932 7.81401C107.891 7.81401 106.851 7.81401 105.811 7.81401C105.489 7.81401 105.162 7.77638 104.873 7.64296C104.404 7.44113 104.047 7.01522 104.003 6.53799C103.975 6.20958 104.057 5.88459 104.096 5.55789C104.247 4.46147 104.4 3.36505 104.552 2.26863C104.593 1.94706 104.621 1.60667 104.796 1.31418ZM107.501 5.34921C108.086 5.34921 108.67 5.34921 109.255 5.34921C109.406 4.47857 109.533 3.60452 109.632 2.72875C109.042 2.72875 108.452 2.72875 107.863 2.72875C107.742 3.6028 107.62 4.47515 107.501 5.34921ZM112.649 5.35434C113.157 5.35092 113.665 5.36118 114.173 5.35092C114.335 5.36118 114.445 5.22263 114.447 5.08408C114.567 4.30068 114.684 3.51899 114.804 2.7373C114.212 2.7373 113.622 2.7373 113.031 2.7373C112.903 3.60794 112.776 4.48199 112.649 5.35434Z" fill="#005A9C"/>
<path d="M39.9765 20.0068L40.4568 15.9561H40.415L38.9743 18.2529C38.8699 18.4199 38.6819 18.5243 38.4731 18.5243H37.6171C37.4291 18.5243 37.2621 18.399 37.1994 18.2529L36.3016 15.9561H36.2598L35.7796 20.0068H34.3806L35.1949 13.0537H36.5939L38.2017 17.0001H38.2435L40.7908 13.0537H42.1689L41.3546 20.0068H39.9765Z" fill="#005A9C"/>
<path d="M47.2662 16.5303C47.2662 16.5927 47.2662 16.6552 47.2871 16.6968L48.7235 20.0068H47.1205L45.9339 17.2589H44.3726L44.0603 20.0068H42.6655L43.4774 13.0537H44.8722L44.5599 15.8016H46.1213L47.9532 13.0537H49.5562L47.3287 16.3637C47.3079 16.4262 47.2871 16.4678 47.2662 16.5303Z" fill="#005A9C"/>
<path d="M54.7994 17.6128C54.8202 17.4046 54.6953 17.2589 54.508 17.2589H51.76L51.6143 18.5496H54.3831C54.5704 18.5496 54.737 18.383 54.7578 18.1749L54.7994 17.6128ZM55.1325 14.8857C55.1533 14.6775 55.0284 14.511 54.8411 14.511H52.0723L51.9266 15.7808H54.6953C54.8827 15.7808 55.0492 15.6143 55.07 15.4269L55.1325 14.8857ZM55.4864 16.5095C55.9444 16.5511 56.2775 16.9674 56.215 17.4462L56.0693 18.7161C55.986 19.4239 55.3615 19.986 54.6953 19.986H50.053L50.8649 13.0537H55.528C56.1942 13.0537 56.673 13.6158 56.5897 14.3444L56.444 15.5935C56.3816 16.0931 55.9652 16.4886 55.4864 16.5095Z" fill="#005A9C"/>
<path d="M61.5923 20.0068L62.2377 14.511H59.1358L58.4905 20.0068H57.0957L57.9076 13.0537H63.799L62.9871 20.0068H61.5923Z" fill="#005A9C"/>
</svg>
