<svg width="38" height="38" viewBox="0 0 38 38" fill="none" xmlns="http://www.w3.org/2000/svg">
<path d="M21.2853 31.0006H16.7139" stroke="#37383C" stroke-width="1.8" stroke-linecap="round" stroke-linejoin="round"/>
<path fill-rule="evenodd" clip-rule="evenodd" d="M26.3465 17.0264V16.9808V16.9808C26.3465 13.047 23.0566 9.85693 18.9996 9.85693V9.85693C14.9426 9.85693 11.6526 13.047 11.6526 16.9808V16.9808V17.0264V20.5484C11.6526 21.01 11.3837 21.4304 10.9591 21.6369L10.22 21.9946C9.29721 22.4434 8.71387 23.3581 8.71387 24.3583V24.3583C8.71387 25.8172 9.93346 26.9998 11.4381 26.9998H26.5611C28.0657 26.9998 29.2853 25.8172 29.2853 24.3583V24.3583C29.2853 23.3581 28.7019 22.4434 27.7792 21.996L27.0401 21.6384C26.6154 21.4304 26.3465 21.01 26.3465 20.5484V17.0264Z" stroke="#37383C" stroke-width="1.8" stroke-linecap="round" stroke-linejoin="round"/>
<path d="M20.93 11.1061L24.434 5.74209H26.33V11.1061H27.29V12.3781H26.33V14.1421H24.89V12.3781H20.93V11.1061ZM24.89 11.1061V7.33809L22.478 11.1061H24.89Z" fill="white"/>
</svg>
